<svg xmlns="http://www.w3.org/2000/svg" xmlns:xlink="http://www.w3.org/1999/xlink" viewBox="0 0 175 175"><defs><style>.cls-1{fill:url(#radial-gradient);}.cls-2{fill:#8cc63f;}.cls-3{fill:#ff0;}.cls-4{fill:#fff;}.cls-5{fill:red;}</style><radialGradient id="radial-gradient" cx="87.5" cy="87.63" r="89.43" gradientUnits="userSpaceOnUse"><stop offset="0" stop-color="#ff7300"/><stop offset="0" stop-color="#f98700"/><stop offset="0" stop-color="#eab400"/><stop offset="0" stop-color="#e5c500"/><stop offset="0.04" stop-color="#e5d901"/><stop offset="0.08" stop-color="#e5ea02"/><stop offset="0.14" stop-color="#e5f603"/><stop offset="0.22" stop-color="#e5fd03"/><stop offset="0.44" stop-color="#e5ff03"/><stop offset="0.49" stop-color="#e6f804"/><stop offset="0.57" stop-color="#e8e405"/><stop offset="0.66" stop-color="#ecc308"/><stop offset="0.76" stop-color="#f1960b"/><stop offset="0.87" stop-color="#f75c10"/><stop offset="0.99" stop-color="#ff1615"/><stop offset="0.99" stop-color="#ff1515"/></radialGradient></defs><g id="Layer_3" data-name="Layer 3"><rect class="cls-1" x="-1.86" y="-1.86" width="100%" height="100%"/><path d="M39.06,116.54c.21-.11,3.23-1.74,7-3.7l.75,1.49-1.08.54a30.21,30.21,0,0,1,1,7.17c.13,4.26-1.43,7.48-1.1,9.62s3.21,4.55,3.72,6.86a4.11,4.11,0,0,1,.05,1.27l-1.15-.13a1.64,1.64,0,0,0-.05-.66c-.73-2.52-4-3-4.91-7s1.23-6.17,1.66-10.38-.9-5.77-.9-5.77l-10.66,7.34,7.21-13.53s-8.29-4.59-8.29-9.19,7.08-5.36,7.08-9.32S33.77,81.21,33,75.3c-.77-5.61,5.62-14.69,9.12-16.06C43.22,40.37,61.73,27.49,81.73,24c10.87-1.87,25.52-1.08,37,3.7,9.67,4,19.47,12.13,22,20.17s2.45,14.07.77,20.17c-.95,3.42-3.66,7.46-4.95,9.27l-.61-.52a52.45,52.45,0,0,0,3.41-5.69,35.39,35.39,0,0,0,.49-22.44C136.31,37,120.89,30.5,117.54,29c-11.47-5.3-27.77-4.91-35.21-3.51C66,28.51,50.4,39.61,47.26,58.38a21.29,21.29,0,0,1,5.94,1.41c-8.07-.41-18.1,11-11.39,12,1.89.29,3.7-.6,8,1.15a32.13,32.13,0,0,1,8.45,5.77c-.82-.83-4.07-4.19-4.57-6.59-.56-2.66,6.61-8.28,7-8.61-.27.36-4.09,5.57-3.59,8.36s3.7,6.67,8.31,9A158.65,158.65,0,0,0,39.06,116.54Z"/><path class="cls-2" d="M60.73,63.47c-.43.33-7.6,6-7,8.61.5,2.4,3.75,5.76,4.57,6.59a32.13,32.13,0,0,0-8.45-5.77c-4.3-1.75-6.11-.86-8-1.15-6.71-1,3.32-12.37,11.39-12a21.29,21.29,0,0,0-5.94-1.41C50.4,39.61,66,28.51,82.33,25.45c7.44-1.4,23.74-1.79,35.21,3.51,3.35,1.54,18.77,8.08,22.28,19.74a35.39,35.39,0,0,1-.49,22.44,52.45,52.45,0,0,1-3.41,5.69,49.45,49.45,0,0,0,.16-7.44c-.54-9-4.78-4.66-5.71-3.73s-14.82,17.65-15.25,18.18l15.25-15.12L132.48,67s1.21-1.34,1.21,1.4-1.6,15-2.55,17.62a11.52,11.52,0,0,1-6.39,6.7,9,9,0,0,0,5.32-1.87,10.14,10.14,0,0,1-1.3,2.64c-.89,1.28-4.17,2.93-5.08,4.38-.75,1.18.06,3-.35,4.51a2.26,2.26,0,0,1-.5.94c-1.12,1.27-3.69.94-4.79-.49,1.22-1,3.21-2.76,3.43-3.85.3-1.6-.49-2.62-.56-4s1.46-1.52,2-3.36-2.74-4.19-2.77-5.36,8.67-11.54,9.21-12.19c-.61.58-10.43,10-11.25,12.61s1.79,3.31,1.87,5-3.8,3.39-3.1,5.66a3.19,3.19,0,0,1-.71,3.2,78.49,78.49,0,0,0-4.77-8.5c.25.5,4.71,9.3,3.72,12.24s-2.36,3.1-7,5-8.26,11.16-8.26,11.16c2.7-3.81,5.43-7.17,8.33-8.5-.09.16-1.13,1.95-.33,5.18.84,3.39,7.89,6.83,6,10.81-1.39,3-18.39,6.47-28.57,9a40,40,0,0,0-7.08,2.13c-4.15,2.26-5,6.48-8.58,8.61s-20.55.58-21.3-1.53c-.63-1.74.82-4.29,1.05-6.42a4.11,4.11,0,0,0-.05-1.27c-.51-2.31-3.39-4.72-3.72-6.86s1.23-5.36,1.1-9.62a30.21,30.21,0,0,0-1-7.17l1.08-.54,1.47-.74a9.75,9.75,0,0,0-1.36,5.35,6.68,6.68,0,0,0,.07.77c.45,3,2.79,5.73,1.36,7.16s-.87,5.51.32,7.34,3,1.58,3.38,3.13-2.19,4.66-1.85,6.77,3,3.08,5.55,2.93a36.39,36.39,0,0,0,6.87-1.59c-2.32-.07-5.74.12-5.14-1.62a14.16,14.16,0,0,1,2.93-4c-5.61.09-5.7-1.32-4.38-2.26s14.17-3.19,14.17-3.19-15.11.34-12.55-2.13,9.4-.85,14.59-1.79,3.45-3.91,5-5.36,8.64-3.15,8.64-3.15l.61-2.09c3,.57,5,1,5,1s-21.79-7.7-24.68-7.7-5.62,5.44-8.64,5.44A5,5,0,0,1,53,114c0-2.34,4.13-3.66,4.13-3.66s-2.83,6.64.21,6.64,4.66-1.75,6.87-3.88,5.18-.88,6-.45c-.62-1.35-2.74-3.3-6.28-1.72.3-.51,6.34-3.85,6.34-5.49s-4.79-1.06-9.89.66c-2.87,1-9.25,4.17-14.29,6.78-3.77,2-6.79,3.59-7,3.7A158.65,158.65,0,0,1,65.45,80.82c-4.61-2.32-7.8-6.1-8.31-9S60.46,63.83,60.73,63.47Z"/><path d="M135.92,76.83l.61.52c-.44.61-.71,1-.71,1-.7,7.07-2.4,14-4,16.46-2.28,3.44-3.51,2.21-5.62,4.85a5.82,5.82,0,0,0-1.26,2.81l-1.62-.05c.41-1.48-.4-3.33.35-4.51.91-1.45,4.19-3.1,5.08-4.38a10.14,10.14,0,0,0,1.3-2.64,9,9,0,0,1-5.32,1.87,11.52,11.52,0,0,0,6.39-6.7c1-2.66,2.55-14.87,2.55-17.62s-1.21-1.4-1.21-1.4l-2.11,1.72L115.12,83.84c.43-.53,14.33-17.27,15.25-18.18s5.17-5.3,5.71,3.73A49.45,49.45,0,0,1,135.92,76.83Z"/><path d="M108.19,112c-2.9,1.33-5.63,4.69-8.33,8.5,0,0,3.67-9.24,8.26-11.16s5.94-2,7-5-3.47-11.74-3.72-12.24a78.49,78.49,0,0,1,4.77,8.5,3.19,3.19,0,0,0,.71-3.2c-.7-2.27,3.19-3.94,3.1-5.66s-2.72-2.27-1.87-5,10.64-12,11.25-12.61c-.54.65-9.21,11-9.21,12.19s3.27,3.52,2.77,5.36-2,2-2,3.36.86,2.36.56,4c-.22,1.09-2.21,2.85-3.43,3.85,1.1,1.43,3.67,1.76,4.79.49a2.26,2.26,0,0,0,.5-.94l1.62.05c-.27,1.56-.14,3.23-1.21,5.65-1.7,3.87-3.9,6.31-7.13,6.31-2.57,0-4.33-2.87-4.94-4a5.6,5.6,0,0,0-1,5.82c1,2.19,10.09,6.46,7.91,13.36-1.87,5.94-22.53,7-32.79,9.35L85.33,137c10.18-2.53,27.18-6,28.57-9,1.85-4-5.2-7.42-6-10.81C107.06,114,108.1,112.17,108.19,112Zm10.41-.42c2.94-1.61,3.64-6.36,3.64-6.36-1.26,2.37-4.12,3.07-5.34,2.19a6.21,6.21,0,0,1-3.22,1.68C114.32,110.18,116.22,112.91,118.6,111.59Z"/><path class="cls-2" d="M122.24,105.23s-.7,4.75-3.64,6.36c-2.38,1.32-4.28-1.41-4.92-2.49a6.21,6.21,0,0,0,3.22-1.68C118.12,108.3,121,107.6,122.24,105.23Z"/><path d="M91.52,120.81s-2.08-.42-5-1c-6.85-1.3-18.45-3.38-20.4-2.84-2.8.76-5.74,6.76-8,6.76S53.58,117,51.39,117s-2.88,1.35-2.76,2.49l-1.64.24a6.68,6.68,0,0,1-.07-.77,9.75,9.75,0,0,1,1.36-5.35l-1.47.74-.75-1.49c5-2.61,11.42-5.81,14.29-6.78,5.1-1.72,9.89-2.29,9.89-.66s-6,5-6.34,5.49c3.54-1.58,5.66.37,6.28,1.72-.78-.43-3.83-1.6-6,.45s-3.83,3.88-6.87,3.88-.21-6.64-.21-6.64S53,111.62,53,114a5,5,0,0,0,5.19,4.59c3,0,5.74-5.44,8.64-5.44S91.52,120.81,91.52,120.81Z"/><path class="cls-2" d="M86.47,119.82l-.61,2.09s-6.38.56-9.36,1.58-1.24,3.28-4.51,4.42-4.68-.42-8-.34-13.24,2.12-12.34-.34c.33-.9,2.63-2.56,1.57-4.38s-4.34-2-4.59-3.16a1.43,1.43,0,0,1,0-.22c-.12-1.14.7-2.49,2.76-2.49s4.43,6.76,6.68,6.76,5.2-6,8-6.76C68,116.44,79.62,118.52,86.47,119.82Z"/><path d="M85.33,137l.46,1.88a20,20,0,0,0-4.06,1.27c-7,3.38-5.71,9.09-10.85,10.79S45,152.31,44.07,148.25c-.84-3.7,3.93-6.26,4.2-8.59l1.15.13c-.23,2.13-1.68,4.68-1.05,6.42.75,2.11,17.77,3.67,21.3,1.53s4.43-6.35,8.58-8.61A40,40,0,0,1,85.33,137Z"/><path d="M76.5,123.49c3-1,9.36-1.58,9.36-1.58s-7.11,1.71-8.64,3.15.21,4.43-5,5.36-12-.68-14.59,1.79,12.55,2.13,12.55,2.13S57.35,136.59,56,137.53s-1.23,2.35,4.38,2.26a14.16,14.16,0,0,0-2.93,4c-.6,1.74,2.82,1.55,5.14,1.62A36.39,36.39,0,0,1,55.75,147c-2.53.15-5.21-.83-5.55-2.93s2.25-5.22,1.85-6.77-2.19-1.3-3.38-3.13-1.87-5.79-.32-7.34-.91-4.21-1.36-7.16l1.64-.24a1.43,1.43,0,0,0,0,.22c.25,1.18,3.54,1.34,4.59,3.16s-1.24,3.48-1.57,4.38c-.9,2.46,9.19.42,12.34.34s4.68,1.49,8,.34S73.52,124.51,76.5,123.49Z"/><path d="M63.73,96.06a5.71,5.71,0,0,0,1.87,2c1.87,1.25,4.68,2.78,6.67,4.2,1.39,1,2.38,1.92,2.38,2.66,0,1.18-4.79,3.58-4.79,3.58s2.84-1.71,2.72-3.9-5.21-4.18-7.38-6.13A4.85,4.85,0,0,1,63.73,96.06Z"/><path d="M78.07,91.19s-2.4,5.68-.7,9.36,10.21,8.55,10.21,8.55-6.76-6.59-8.21-9.4S78.07,91.19,78.07,91.19Z"/><path d="M79.64,94.25s.35,4.66,3,5.81,7.85-1.64,7.85-1.64-4.34.7-7-.37A7.61,7.61,0,0,1,79.64,94.25Z"/><path d="M80.07,92.4s2.59,2.55,8.19,1.36,7.47-4.54,7.47-4.54-2.06,5.53-7,6.5S80.07,92.4,80.07,92.4Z"/><path d="M81.31,88.73s2,2.53,4.7,1.7a6.84,6.84,0,0,0,3.89-3.36s-.66,4.38-4,4.77S81.31,88.73,81.31,88.73Z"/><path d="M89.9,91.7a9.52,9.52,0,0,0,2.68-4.45A12.11,12.11,0,0,0,93,81.78a11.4,11.4,0,0,1,.68,5.6C93.11,89.89,89.9,91.7,89.9,91.7Z"/><path d="M95.55,93.8A18.55,18.55,0,0,0,100,83.53,24.1,24.1,0,0,0,98.07,72.9s3.64,4.88,3.26,10.66S95.55,93.8,95.55,93.8Z"/><path d="M77.82,90.44s-2.85,1.07-3.3-.17,2.21-3.64,2.21-3.64-4.42,1.81-3.68,4.22S77.82,90.44,77.82,90.44Z"/><path d="M80.33,87.75s-1.48.7-1.71-.12,1.15-2.41,1.15-2.41-2.29,1.2-1.91,2.79S80.33,87.75,80.33,87.75Z"/><path d="M75.86,58.63S64.29,71,65,76.25s5.4,4.39,6.68,6.3c-2.65,2.35-2.6,6.94-2.6,6.94,2.57-3.82,5-5.94,8.27-6.43a8.28,8.28,0,0,0,.41,3.53s.58-3.23,1.87-4.68a6.46,6.46,0,0,0,.34,3c-.49-7.25,8.75-10.76,10.81-2.25,0-3.53-1-6.48-4.85-7.54,2.09-.44,4.23-.1,6.68,5a11.75,11.75,0,0,0-3.44-7.49c3.07,1,5.59,4,6.34,13.07,2.12-5.92,1.73-11-2-14.81,3.17-2.12,6-.34,8.68,3.32-.58-1.92-1.17-3.83-2.39-5.11,6.64-.29,12.58,2,17.88,6.6-3.62-8.09-9.11-13-16.94-13.92-6.38-1.08-12.58,3.12-16.08,8.81s-14.95,9.35-17.24,5.19S75.86,58.63,75.86,58.63Z"/><path d="M90.16,124.41s4.72-1.56,4.91-3.16-3.7-6.76-3.7-6.76,6.06,5.23,6.06,7.11S90.16,124.41,90.16,124.41Z"/><ellipse class="cls-3" cx="84.49" cy="83.96" rx="4.98" ry="4.19" transform="translate(-11.74 154.16) rotate(-80.93)"/><path d="M89.61,84.78c-1.43,7.17-10.41,5.8-9.38-1.5,1.3-7.26,10.26-5.76,9.38,1.5Zm-2-.31c.83-5.85-6-6.87-7.17-1.15-.69,5.81,6.14,7,7.17,1.15Z"/><line class="cls-4" x1="84.43" y1="81" x2="83.84" y2="87.68"/><path class="cls-5" d="M85.07,82.74A4.8,4.8,0,0,0,84.43,81a4.13,4.13,0,0,0-.57.81,1.6,1.6,0,0,1,.51,1.5,1.5,1.5,0,0,1-1.24,1.33,7.13,7.13,0,0,0,.07,1.3,4.94,4.94,0,0,0,.64,1.74,4.9,4.9,0,0,0,.93-1.6s0-.06,0-.08a1.3,1.3,0,0,1-.06-.59,1.24,1.24,0,0,1,.36-.69c0-.1,0-.19,0-.29A6.86,6.86,0,0,0,85.07,82.74Z"/><path d="M64,77.55S59.77,76,58.94,73.23s1.86-6.79,1.86-6.79-1.32,4-.26,6.47A16.86,16.86,0,0,0,64,77.55Z"/><path d="M63.26,74.8s-1.06-4.06.11-6.93,5.36-6.28,5.36-6.28S65,66.14,64.31,68.4A47.48,47.48,0,0,0,63.26,74.8Z"/><path d="M56.88,52a3.83,3.83,0,0,1,3.08.69c1.36,1.1,1.17,5.6,3.13,5.6s3.29-7.08,5.35-8.58,14-1,14-1S71.22,46.7,68,48.1s-4,7.3-5.11,7.3-1.24-3-3.16-3.44A4.28,4.28,0,0,0,56.88,52Z"/><path d="M96.41,38.53s12.56,5,14.68,8.17-.72,6.93.47,9.64,10.9,7.15,10.9,7.15-12.09-2.9-13.58-6.39,1-6.13-.55-9.53S96.41,38.53,96.41,38.53Z"/><path d="M130.88,76.12s-9,8.46-7.63,11.84,6.93-2.77,6.93-2.77-4.31,2.65-5.11,1.34S130.88,76.12,130.88,76.12Z"/></g></svg>